<svg width="14" height="11" viewBox="0 0 14 11" fill="none" xmlns="http://www.w3.org/2000/svg">
<path d="M13.5272 1.30606C13.0205 1.5302 12.4832 1.67739 11.933 1.74279C12.5129 1.39595 12.9469 0.850104 13.1542 0.206957C12.61 0.530849 12.0133 0.757838 11.3914 0.880625C10.9737 0.433667 10.42 0.137243 9.81638 0.0374351C9.21279 -0.0623729 8.59315 0.0400277 8.05376 0.328717C7.51438 0.617407 7.08549 1.07621 6.83376 1.6338C6.58203 2.19139 6.52157 2.81653 6.66178 3.41202C5.5581 3.3567 4.47839 3.06989 3.49275 2.57021C2.50711 2.07053 1.63757 1.36915 0.940587 0.511601C0.693878 0.935348 0.564232 1.41705 0.564926 1.90739C0.564926 2.86977 1.05475 3.71998 1.79943 4.21777C1.35873 4.20389 0.927732 4.08488 0.542359 3.87065V3.90516C0.542492 4.54611 0.764284 5.16729 1.17013 5.66337C1.57598 6.15946 2.1409 6.49993 2.76911 6.62704C2.36001 6.73791 1.93105 6.75425 1.5147 6.67483C1.69182 7.22653 2.03704 7.70903 2.50203 8.05476C2.96702 8.4005 3.52848 8.59216 4.10782 8.60291C3.53204 9.05512 2.87277 9.3894 2.16771 9.58665C1.46265 9.7839 0.725628 9.84024 -0.0012207 9.75246C1.2676 10.5685 2.74462 11.0016 4.25317 11.0002C9.35911 11.0002 12.1513 6.77041 12.1513 3.10207C12.1513 2.9826 12.148 2.86181 12.1427 2.74366C12.6862 2.35086 13.1553 1.86426 13.5279 1.30673L13.5272 1.30606Z" fill="white"/>
</svg>
