<svg width="13" height="13" viewBox="0 0 13 13" fill="none" xmlns="http://www.w3.org/2000/svg">
<path d="M6.49878 4.55024C5.98161 4.55024 5.48562 4.75569 5.11992 5.12139C4.75422 5.48708 4.54878 5.98307 4.54878 6.50024C4.54878 7.01742 4.75422 7.51341 5.11992 7.8791C5.48562 8.2448 5.98161 8.45024 6.49878 8.45024C7.01595 8.45024 7.51194 8.2448 7.87764 7.8791C8.24333 7.51341 8.44878 7.01742 8.44878 6.50024C8.44878 5.98307 8.24333 5.48708 7.87764 5.12139C7.51194 4.75569 7.01595 4.55024 6.49878 4.55024ZM6.49878 3.25024C7.36073 3.25024 8.18738 3.59265 8.79688 4.20215C9.40637 4.81164 9.74878 5.63829 9.74878 6.50024C9.74878 7.3622 9.40637 8.18885 8.79688 8.79834C8.18738 9.40783 7.36073 9.75024 6.49878 9.75024C5.63683 9.75024 4.81018 9.40783 4.20068 8.79834C3.59119 8.18885 3.24878 7.3622 3.24878 6.50024C3.24878 5.63829 3.59119 4.81164 4.20068 4.20215C4.81018 3.59265 5.63683 3.25024 6.49878 3.25024ZM10.7238 3.08774C10.7238 3.30323 10.6382 3.50989 10.4858 3.66227C10.3334 3.81464 10.1268 3.90024 9.91128 3.90024C9.69579 3.90024 9.48913 3.81464 9.33675 3.66227C9.18438 3.50989 9.09878 3.30323 9.09878 3.08774C9.09878 2.87226 9.18438 2.66559 9.33675 2.51322C9.48913 2.36085 9.69579 2.27524 9.91128 2.27524C10.1268 2.27524 10.3334 2.36085 10.4858 2.51322C10.6382 2.66559 10.7238 2.87226 10.7238 3.08774ZM6.49878 1.30024C4.89068 1.30024 4.62808 1.30479 3.87993 1.33794C3.37033 1.36199 3.02843 1.43024 2.71123 1.55374C2.42913 1.66294 2.22568 1.79359 2.00923 2.01069C1.80578 2.20725 1.64936 2.44722 1.55163 2.71269C1.42813 3.03119 1.35988 3.37244 1.33648 3.88139C1.30268 4.59899 1.29878 4.84989 1.29878 6.50024C1.29878 8.10834 1.30333 8.37094 1.33648 9.11909C1.36053 9.62804 1.42878 9.97059 1.55163 10.2871C1.66213 10.5699 1.79213 10.7733 2.00793 10.9891C2.22698 11.2075 2.43043 11.3382 2.70993 11.4461C3.03103 11.5702 3.37293 11.6391 3.87993 11.6625C4.59753 11.6963 4.84843 11.7002 6.49878 11.7002C8.10688 11.7002 8.36948 11.6957 9.11763 11.6625C9.62593 11.6385 9.96848 11.5702 10.2857 11.4474C10.5671 11.3375 10.7719 11.2069 10.9877 10.9911C11.2067 10.772 11.3374 10.5686 11.4453 10.2891C11.5688 9.96864 11.6377 9.62609 11.6611 9.11909C11.6949 8.40149 11.6988 8.15059 11.6988 6.50024C11.6988 4.89214 11.6942 4.62954 11.6611 3.88139C11.637 3.37309 11.5688 3.02989 11.4453 2.71269C11.3473 2.4475 11.1912 2.20762 10.9883 2.01069C10.7919 1.80714 10.5519 1.6507 10.2863 1.55309C9.96783 1.42959 9.62593 1.36134 9.11763 1.33794C8.40003 1.30414 8.14913 1.30024 6.49878 1.30024ZM6.49878 0.000244141C8.26483 0.000244141 8.48518 0.0067441 9.17808 0.0392441C9.87033 0.0717441 10.3416 0.180294 10.7563 0.341494C11.1853 0.506594 11.5467 0.730194 11.9081 1.09094C12.2386 1.41588 12.4943 1.80893 12.6575 2.24274C12.8181 2.65679 12.9273 3.12869 12.9598 3.82094C12.9903 4.51384 12.9988 4.73419 12.9988 6.50024C12.9988 8.26629 12.9923 8.48664 12.9598 9.17954C12.9273 9.87179 12.8181 10.343 12.6575 10.7577C12.4948 11.1918 12.239 11.5849 11.9081 11.9095C11.5831 12.24 11.19 12.4957 10.7563 12.659C10.3422 12.8195 9.87033 12.9287 9.17808 12.9612C8.48518 12.9918 8.26483 13.0002 6.49878 13.0002C4.73273 13.0002 4.51238 12.9937 3.81948 12.9612C3.12723 12.9287 2.65598 12.8195 2.24128 12.659C1.80729 12.4962 1.41417 12.2404 1.08948 11.9095C0.758893 11.5847 0.503135 11.1916 0.340029 10.7577C0.178829 10.3437 0.0702793 9.87179 0.0377793 9.17954C0.00722926 8.48664 -0.0012207 8.26629 -0.0012207 6.50024C-0.0012207 4.73419 0.00527926 4.51384 0.0377793 3.82094C0.0702793 3.12804 0.178829 2.65744 0.340029 2.24274C0.502683 1.80866 0.758502 1.4155 1.08948 1.09094C1.41427 0.760244 1.80736 0.504468 2.24128 0.341494C2.65598 0.180294 3.12658 0.0717441 3.81948 0.0392441C4.51238 0.0086941 4.73273 0.000244141 6.49878 0.000244141Z" fill="white"/>
</svg>
