<svg width="12" height="11" viewBox="0 0 12 11" fill="none" xmlns="http://www.w3.org/2000/svg">
<path d="M2.44309 1.22301C2.44293 1.54715 2.31401 1.85794 2.0847 2.08702C1.85538 2.31611 1.54446 2.44472 1.22032 2.44455C0.896187 2.44439 0.585392 2.31547 0.356308 2.08616C0.127224 1.85685 -0.00138262 1.54592 -0.00122055 1.22179C-0.00105848 0.897652 0.127859 0.586857 0.357172 0.357773C0.586485 0.128689 0.897409 8.22259e-05 1.22154 0.000244294C1.54568 0.000406361 1.85648 0.129324 2.08556 0.358637C2.31464 0.58795 2.44325 0.898874 2.44309 1.22301ZM2.47975 3.34956H0.035444V11.0002H2.47975V3.34956ZM6.34176 3.34956H3.90967V11.0002H6.31732V6.98547C6.31732 4.74893 9.23215 4.54116 9.23215 6.98547V11.0002H11.6459V6.1544C11.6459 2.38406 7.33171 2.5246 6.31732 4.37617L6.34176 3.34956Z" fill="white"/>
</svg>
