<svg width="130" height="130" viewBox="0 0 130 130" fill="none" xmlns="http://www.w3.org/2000/svg">
<path d="M63.0508 116.99L61.772 126.59L58.6407 126.173C57.6269 126.038 56.7739 125.715 56.0814 125.203C55.3792 124.698 54.87 124.058 54.5537 123.281C54.2364 122.513 54.1406 121.657 54.2665 120.712C54.3912 119.776 54.7084 118.97 55.218 118.294C55.7265 117.628 56.3862 117.139 57.1971 116.827C57.9983 116.523 58.9058 116.438 59.9195 116.573L63.0508 116.99ZM61.0923 118.303L59.6748 118.114C59.0219 118.027 58.4415 118.086 57.9335 118.289C57.4158 118.5 56.9918 118.828 56.6614 119.274C56.3298 119.728 56.12 120.286 56.0319 120.947C55.9426 121.617 55.9991 122.21 56.2013 122.727C56.4036 123.244 56.7275 123.667 57.1731 123.997C57.6101 124.327 58.1551 124.535 58.808 124.622L60.2255 124.811L61.0923 118.303Z" fill="#EEEEEE"/>
<path d="M46.1236 113.233L42.344 122.15L40.7162 121.46L44.4958 112.543L46.1236 113.233Z" fill="#EEEEEE"/>
<path d="M33.2265 105.672C33.7654 106.109 34.1848 106.61 34.4846 107.176C34.7845 107.742 34.9645 108.34 35.0244 108.968C35.0844 109.596 35.0212 110.225 34.8348 110.855C34.6416 111.479 34.3188 112.071 33.8661 112.63C33.4135 113.189 32.9054 113.631 32.3418 113.955C31.766 114.281 31.1706 114.479 30.5557 114.55C29.9286 114.622 29.3097 114.567 28.699 114.384C28.0828 114.209 27.5052 113.903 26.9664 113.467C26.4275 113.031 26.0195 112.55 25.7424 112.024C25.4585 111.493 25.2911 110.956 25.2401 110.413C25.1837 109.877 25.236 109.379 25.3971 108.918L27.0941 109.322C26.9192 109.827 26.902 110.337 27.0425 110.852C27.183 111.367 27.4957 111.821 27.9807 112.214C28.4522 112.596 28.9598 112.823 29.5035 112.895C30.0405 112.962 30.5681 112.881 31.0865 112.654C31.5981 112.422 32.0666 112.043 32.492 111.517C32.9174 110.992 33.1899 110.449 33.3096 109.888C33.417 109.328 33.3789 108.79 33.1951 108.273C33.0113 107.756 32.6837 107.307 32.2122 106.925C31.8282 106.614 31.4146 106.402 30.9713 106.289C30.5226 106.182 30.0887 106.187 29.6698 106.305C29.2454 106.43 28.8778 106.685 28.567 107.069L28.1007 107.644L27.916 106.592L30.7046 108.849L29.7639 110.011L26.2276 107.148L26.8411 106.391C27.3101 105.811 27.8222 105.378 28.3775 105.092C28.9327 104.806 29.5015 104.647 30.0837 104.617C30.6537 104.587 31.2102 104.665 31.7533 104.848C32.2909 105.038 32.7819 105.313 33.2265 105.672Z" fill="#EEEEEE"/>
<path d="M23.4073 95.8242L15.4722 101.377L14.4586 99.9284L22.3937 94.3757L23.4073 95.8242Z" fill="#EEEEEE"/>
<path d="M17.3808 85.3006L9.82241 88.2815L10.7429 90.6155L9.29169 91.1879L6.81159 84.8993L8.26281 84.3269L9.169 86.6247L16.7274 83.6438L17.3808 85.3006Z" fill="#EEEEEE"/>
<path d="M13.8073 74.4308L3.90281 71.8112L3.73453 69.5294L13.1476 65.4851L13.2891 67.4039L11.2654 68.244L11.5408 71.9778L13.6668 72.5249L13.8073 74.4308ZM9.9477 71.5869L9.7469 68.8643L5.05553 70.8267L5.01919 70.334L9.9477 71.5869Z" fill="#EEEEEE"/>
<path d="M13.8526 56.2774L4.44427 53.979L4.86385 52.2615L12.7567 54.1897L13.7409 50.1612L15.2563 50.5314L13.8526 56.2774Z" fill="#EEEEEE"/>
<path d="M22.7403 34.5575L17.7675 25.6002L19.2964 23.898L28.7342 27.8841L27.4486 29.3155L25.4407 28.4382L22.9389 31.2236L24.0173 33.1358L22.7403 34.5575ZM22.1171 29.804L23.9413 27.773L19.276 25.7494L19.6061 25.3819L22.1171 29.804Z" fill="#EEEEEE"/>
<path d="M39.9057 19.8486C39.2947 20.1762 38.6701 20.3685 38.032 20.4255C37.3938 20.4826 36.7735 20.4169 36.171 20.2286C35.5685 20.0403 35.0132 19.7382 34.505 19.3224C34.0044 18.9024 33.5842 18.3754 33.2442 17.7415C32.9043 17.1075 32.6941 16.4679 32.6136 15.8227C32.5367 15.1658 32.5847 14.5401 32.7578 13.9458C32.9343 13.3398 33.2249 12.7906 33.6296 12.2982C34.0302 11.7982 34.5361 11.3844 35.1471 11.0567C35.7581 10.7291 36.3595 10.5393 36.9513 10.4875C37.5507 10.4316 38.1106 10.4854 38.6309 10.6489C39.1472 10.8048 39.5864 11.0462 39.9486 11.3732L38.9187 12.7811C38.5207 12.4241 38.0571 12.2105 37.5278 12.1403C36.9984 12.0701 36.4588 12.1825 35.9089 12.4774C35.3742 12.7641 34.9683 13.144 34.691 13.6172C34.4213 14.0863 34.2907 14.6038 34.2991 15.1697C34.3151 15.7315 34.4829 16.3102 34.8024 16.906C35.1218 17.5017 35.5169 17.9635 35.9877 18.2913C36.462 18.6073 36.973 18.7807 37.5206 18.8116C38.0682 18.8425 38.6093 18.7146 39.144 18.4279C39.5793 18.1945 39.9353 17.8954 40.2118 17.5308C40.4842 17.1586 40.6472 16.7565 40.7008 16.3245C40.7503 15.885 40.6583 15.4475 40.4248 15.0122L40.0746 14.3591L41.1167 14.5969L37.9546 16.2925L37.2481 14.9749L41.258 12.8247L41.7188 13.684C42.071 14.3409 42.2715 14.9807 42.3203 15.6036C42.3691 16.2265 42.2948 16.8122 42.0972 17.3606C41.9031 17.8974 41.6164 18.3806 41.2371 18.8102C40.8536 19.2321 40.4098 19.5783 39.9057 19.8486Z" fill="#EEEEEE"/>
<path d="M52.768 14.5022L51.1505 4.95318L57.4951 3.87847L57.7557 5.41656L53.1542 6.196L53.5689 8.64412L57.914 7.90811L58.1745 9.4462L53.8294 10.1822L54.2506 12.6688L58.8521 11.8894L59.1126 13.4274L52.768 14.5022Z" fill="#EEEEEE"/>
<path d="M67.7726 12.9984L69.1761 3.41565L70.5395 3.61533L74.7734 11.488L74.0452 11.5259L75.1058 4.28411L76.8552 4.54031L75.4517 14.1231L74.0754 13.9215L69.9262 6.00872L70.5901 5.96143L69.522 13.2546L67.7726 12.9984Z" fill="#EEEEEE"/>
<path d="M88.7039 19.0235C88.0929 18.6958 87.5871 18.282 87.1865 17.782C86.7935 17.2861 86.5088 16.7351 86.3322 16.1291C86.1633 15.5271 86.1152 14.9015 86.1881 14.2522C86.2609 13.6028 86.4673 12.9612 86.8072 12.3273C87.1472 11.6933 87.5636 11.1643 88.0565 10.7402C88.5611 10.3126 89.1089 10.0064 89.6996 9.8217C90.3021 9.6334 90.9204 9.57158 91.5545 9.63622C92.1926 9.69322 92.8172 9.88555 93.4282 10.2132C94.0393 10.5408 94.5301 10.9368 94.9007 11.401C95.2789 11.8694 95.5439 12.3655 95.6957 12.8894C95.8515 13.4057 95.8935 13.9051 95.8216 14.3878L94.0736 14.2913C94.1426 13.7776 94.0599 13.2808 93.8254 12.8011C93.5951 12.3137 93.2087 11.9246 92.6664 11.6338C92.1318 11.3471 91.5907 11.2192 91.0431 11.2501C90.5031 11.2851 89.9998 11.4627 89.5331 11.7828C89.0741 12.107 88.6848 12.567 88.3653 13.1628C88.0459 13.7585 87.8761 14.3411 87.8559 14.9105C87.8475 15.4764 87.9782 15.9939 88.2478 16.463C88.5251 16.9362 88.9311 17.3161 89.4657 17.6028C90.008 17.8936 90.5438 18.0039 91.0732 17.9337C91.6066 17.8559 92.0682 17.6462 92.4579 17.3044L93.5055 18.707C93.1433 19.034 92.702 19.2792 92.1817 19.4427C91.6654 19.5986 91.1075 19.6486 90.5081 19.5927C89.9164 19.5409 89.315 19.3511 88.7039 19.0235Z" fill="#EEEEEE"/>
<path d="M102.012 28.586L105.172 25.6838L106.937 19.6311L108.3 21.115L106.887 25.8026L106.403 25.2761L111.185 24.2552L112.548 25.7392L106.386 26.9866L103.217 29.8976L102.012 28.586Z" fill="#EEEEEE"/>
<path d="M114.92 51.3579C114.767 50.7618 114.734 50.1797 114.821 49.6117C114.911 49.052 115.101 48.538 115.393 48.0697C115.695 47.6076 116.085 47.2259 116.562 46.9247L117.544 48.1896C117.064 48.554 116.724 48.99 116.523 49.4978C116.331 50.0034 116.303 50.5248 116.441 51.0621C116.518 51.3644 116.631 51.6128 116.78 51.8074C116.938 52.0083 117.117 52.146 117.315 52.2205C117.515 52.3034 117.733 52.3148 117.968 52.2546C118.245 52.1836 118.45 52.0415 118.583 51.8285C118.727 51.6216 118.807 51.3416 118.824 50.9884L118.942 49.0391C118.982 48.2506 119.181 47.6136 119.54 47.1281C119.898 46.6425 120.384 46.3212 120.997 46.1642C121.534 46.0266 122.042 46.0352 122.52 46.1901C123 46.3533 123.414 46.641 123.761 47.0531C124.119 47.4714 124.376 47.987 124.533 48.5999C124.677 49.1624 124.709 49.7045 124.628 50.2263C124.555 50.7459 124.385 51.2188 124.119 51.645C123.863 52.0774 123.521 52.4377 123.094 52.7261L122.103 51.4769C122.526 51.1718 122.816 50.8023 122.973 50.3683C123.139 49.9323 123.159 49.4707 123.035 48.9838C122.961 48.6984 122.846 48.4594 122.69 48.2669C122.542 48.0723 122.363 47.9346 122.155 47.8538C121.957 47.7793 121.74 47.7722 121.505 47.8324C121.245 47.8991 121.035 48.0422 120.877 48.2617C120.727 48.4791 120.641 48.7738 120.62 49.146L120.521 51.01C120.469 51.8196 120.276 52.464 119.942 52.943C119.611 53.4305 119.13 53.7549 118.501 53.9162C117.963 54.0539 117.454 54.0369 116.971 53.8652C116.489 53.6936 116.068 53.3944 115.708 52.9677C115.348 52.5409 115.085 52.0044 114.92 51.3579Z" fill="#EEEEEE"/>
<path d="M116.912 65.6485L125.03 65.9739L125.131 63.4669L126.689 63.5294L126.419 70.284L124.86 70.2215L124.959 67.7535L116.84 67.4281L116.912 65.6485Z" fill="#EEEEEE"/>
<path d="M114.127 81.2452C114.377 80.5431 114.746 79.9708 115.235 79.5285C115.721 79.0943 116.276 78.8136 116.901 78.6866C117.526 78.5595 118.165 78.6122 118.818 78.8448L124.684 80.9337L124.091 82.5993L118.31 80.5409C117.935 80.4071 117.567 80.3681 117.207 80.4239C116.843 80.4877 116.524 80.6361 116.248 80.869C115.98 81.1048 115.779 81.4104 115.645 81.786C115.509 82.1697 115.471 82.5335 115.533 82.8774C115.599 83.2324 115.755 83.5453 115.999 83.8162C116.24 84.0952 116.548 84.3016 116.924 84.4353L122.704 86.4937L122.111 88.1593L116.245 86.0704C115.592 85.8378 115.063 85.4748 114.659 84.9814C114.255 84.488 114.004 83.9154 113.905 83.2637C113.803 82.6202 113.877 81.9474 114.127 81.2452Z" fill="#EEEEEE"/>
<path d="M108.494 93.6837L116.039 99.7562L114.058 102.217C113.417 103.014 112.698 103.575 111.901 103.902C111.106 104.241 110.294 104.344 109.466 104.211C108.645 104.085 107.863 103.722 107.12 103.124C106.384 102.532 105.86 101.843 105.547 101.057C105.24 100.277 105.164 99.4588 105.318 98.6039C105.474 97.7611 105.872 96.9413 106.513 96.1447L108.494 93.6837ZM108.601 96.0391L107.704 97.1532C107.291 97.6663 107.04 98.1927 106.95 98.7325C106.862 99.2845 106.923 99.8173 107.132 100.331C107.349 100.85 107.717 101.319 108.237 101.737C108.763 102.161 109.3 102.42 109.847 102.515C110.393 102.61 110.923 102.553 111.437 102.343C111.945 102.14 112.406 101.782 112.819 101.269L113.715 100.155L108.601 96.0391Z" fill="#EEEEEE"/>
<path d="M96.5021 106.208L102.166 114.064L100.732 115.098L95.068 107.242L96.5021 106.208Z" fill="#EEEEEE"/>
<path d="M83.1834 113.384C83.8548 113.152 84.5224 113.053 85.1861 113.089C85.8499 113.125 86.4725 113.28 87.0542 113.556C87.6358 113.831 88.1488 114.213 88.5932 114.701C89.0323 115.2 89.3682 115.785 89.601 116.456C89.8367 117.136 89.9352 117.804 89.8965 118.459C89.8578 119.115 89.6953 119.731 89.4089 120.307C89.1226 120.883 88.7285 121.387 88.2266 121.818C87.7276 122.257 87.1383 122.594 86.4586 122.83C85.779 123.065 85.1073 123.165 84.4436 123.129C83.7799 123.094 83.1572 122.938 82.5756 122.663C81.9968 122.395 81.4893 122.017 81.0531 121.526C80.6087 121.038 80.2686 120.454 80.033 119.774C79.8001 119.103 79.7057 118.434 79.7498 117.767C79.7967 117.109 79.9633 116.492 80.2496 115.915C80.536 115.339 80.9287 114.831 81.4277 114.392C81.9185 113.956 82.5038 113.62 83.1834 113.384ZM83.7115 114.907C83.2612 115.064 82.8746 115.285 82.5519 115.571C82.232 115.865 81.9826 116.204 81.8036 116.587C81.6164 116.973 81.5172 117.388 81.5061 117.832C81.4868 118.279 81.5567 118.732 81.7157 119.191C81.8747 119.649 82.0987 120.044 82.3877 120.375C82.6714 120.717 83.0062 120.981 83.3922 121.169C83.7728 121.367 84.1784 121.478 84.609 121.503C85.0397 121.528 85.4801 121.463 85.9305 121.307C86.3727 121.153 86.7551 120.934 87.0778 120.647C87.4006 120.361 87.6541 120.021 87.8385 119.627C88.0175 119.244 88.1167 118.829 88.1359 118.382C88.1581 117.943 88.0896 117.494 87.9306 117.036C87.7716 116.577 87.5462 116.178 87.2543 115.839C86.9624 115.5 86.6276 115.236 86.2498 115.045C85.8639 114.858 85.4542 114.748 85.0207 114.715C84.5901 114.69 84.1537 114.754 83.7115 114.907Z" fill="#EEEEEE"/>
<path d="M75.8764 64.1891C76.4295 64.5883 76.4295 65.4117 75.8764 65.8109L60.5852 76.8464C59.9238 77.3237 59 76.8511 59 76.0355L59 53.9645C59 53.1489 59.9238 52.6763 60.5852 53.1536L75.8764 64.1891Z" fill="white"/>
<g filter="url(#filter0_b_1_444)">
<circle cx="65" cy="65" r="44.5" stroke="white"/>
</g>
<defs>
<filter id="filter0_b_1_444" x="5" y="5" width="120" height="120" filterUnits="userSpaceOnUse" color-interpolation-filters="sRGB">
<feFlood flood-opacity="0" result="BackgroundImageFix"/>
<feGaussianBlur in="BackgroundImageFix" stdDeviation="7.5"/>
<feComposite in2="SourceAlpha" operator="in" result="effect1_backgroundBlur_1_444"/>
<feBlend mode="normal" in="SourceGraphic" in2="effect1_backgroundBlur_1_444" result="shape"/>
</filter>
</defs>
</svg>
