<svg width="11" height="7" viewBox="0 0 11 7" fill="none" xmlns="http://www.w3.org/2000/svg">
<path d="M1.12922 1.1292C1.28585 0.972576 1.53094 0.958337 1.70365 1.08649L1.75314 1.1292L5.55882 4.93469L9.36451 1.1292C9.52114 0.972576 9.76624 0.958337 9.93895 1.08649L9.98843 1.1292C10.1451 1.28583 10.1593 1.53093 10.0311 1.70364L9.98843 1.75312L5.87078 5.87077C5.71416 6.0274 5.46906 6.04163 5.29635 5.91349L5.24686 5.87077L1.12922 1.75312C0.956927 1.58083 0.956927 1.30149 1.12922 1.1292Z" fill="white"/>
<path fill-rule="evenodd" clip-rule="evenodd" d="M1.54873 1.28301C1.47446 1.23224 1.37193 1.24005 1.30599 1.30598C1.23134 1.38064 1.23134 1.50169 1.30599 1.57634L5.41717 5.68752L5.45127 5.71696C5.52554 5.76773 5.62807 5.75992 5.69401 5.69399L9.80518 1.58282L9.83462 1.54871C9.88406 1.47639 9.87795 1.37726 9.81671 1.31124L9.78402 1.28301C9.70975 1.23224 9.60722 1.24005 9.54129 1.30598L5.55882 5.28824L1.58284 1.31246L1.54873 1.28301ZM0.952441 0.952427C1.19798 0.706887 1.58186 0.684813 1.85262 0.885717L1.86003 0.891217L1.92343 0.945948L5.55882 4.58115L9.18774 0.952427C9.43328 0.706887 9.81715 0.684813 10.0879 0.885717L10.0953 0.891217L10.1587 0.94595L10.1652 0.952427C10.4107 1.19797 10.4328 1.58184 10.2319 1.85261L10.2264 1.86002L10.1717 1.92342L6.04756 6.04754C5.80202 6.29308 5.41815 6.31516 5.14738 6.11425L5.13997 6.10875L5.07656 6.05402L0.952441 1.9299C0.68252 1.65998 0.68252 1.22235 0.952441 0.952427Z" fill="white"/>
</svg>
