<svg width="49" height="49" viewBox="0 0 49 49" fill="none" xmlns="http://www.w3.org/2000/svg">
<path d="M12.1248 37.0042C11.5553 36.4347 11.5078 35.5409 11.9824 34.9173L12.1248 34.7544L34.6224 12.2568C35.2436 11.6356 36.2509 11.6356 36.8721 12.2568C37.4416 12.8263 37.4891 13.7201 37.0145 14.3437L36.8721 14.5066L14.3745 37.0042C13.7533 37.6254 12.746 37.6254 12.1248 37.0042Z" fill="#E3B27D"/>
<path fill-rule="evenodd" clip-rule="evenodd" d="M12.8319 36.2971C13.0626 36.5278 13.4367 36.5278 13.6674 36.2971L36.1413 13.8232L36.2338 13.7174C36.3931 13.4877 36.3697 13.1686 36.165 12.9639C35.9343 12.7332 35.5602 12.7332 35.3295 12.9639L12.8556 35.4378L12.7631 35.5437C12.6037 35.7733 12.6272 36.0924 12.8319 36.2971ZM15.0816 37.7113C14.0698 38.7231 12.4294 38.7231 11.4176 37.7113C10.4896 36.7833 10.4132 35.328 11.1866 34.3117L11.2071 34.2848L11.3939 34.0711L33.9153 11.5497C34.927 10.5379 36.5674 10.5379 37.5792 11.5497C38.5073 12.4778 38.5837 13.933 37.8102 14.9493L37.7897 14.9762L37.603 15.1899L15.0816 37.7113Z" fill="#E3B27D"/>
<path d="M17.6431 15.0102C16.7645 15.0121 16.0507 14.3014 16.0489 13.4228C16.0471 12.6241 16.6343 11.9616 17.4012 11.8463L17.6362 11.8285L35.7453 11.7895C36.5464 11.7878 37.21 12.3784 37.3227 13.1479L37.3396 13.3837L37.3021 31.4942C37.3002 32.3728 36.5865 33.0836 35.7079 33.0817C34.9092 33.0801 34.2492 32.4901 34.1372 31.7228L34.1204 31.4876L34.1537 14.9745L17.6431 15.0102Z" fill="#E3B27D"/>
<path fill-rule="evenodd" clip-rule="evenodd" d="M17.0488 13.4206C17.0496 13.7469 17.3146 14.0109 17.6409 14.0102L35.1557 13.9724L35.1205 31.453L35.1314 31.6058C35.1842 31.8764 35.4239 32.0811 35.71 32.0817C36.0363 32.0824 36.3014 31.8184 36.3021 31.4921L36.3395 13.4183L36.3285 13.2652C36.2754 12.9939 36.0344 12.7889 35.7475 12.7895L17.675 12.8284L17.5224 12.84C17.252 12.894 17.0482 13.1345 17.0488 13.4206ZM17.6452 16.0102C16.2144 16.0132 15.0519 14.8558 15.0489 13.4249C15.0461 12.1232 16.0027 11.0453 17.2526 10.8574L17.2891 10.8519L17.5974 10.8286L35.7432 10.7895C37.0487 10.7867 38.1285 11.7489 38.3121 13.003L38.3175 13.0396L38.3396 13.349L38.3021 31.4963C38.2991 32.9271 37.1367 34.0847 35.7059 34.0817C34.4042 34.079 33.3303 33.1178 33.1477 31.8672L33.1423 31.8307L33.1204 31.5222L33.1516 15.9767L17.6452 16.0102Z" fill="#E3B27D"/>
</svg>
