<svg width="17" height="14" viewBox="0 0 17 14" fill="none" xmlns="http://www.w3.org/2000/svg">
<path fill-rule="evenodd" clip-rule="evenodd" d="M0.25 1C0.25 0.585786 0.585786 0.25 1 0.25H3C3.38216 0.25 3.70321 0.537352 3.74541 0.917176L3.8935 2.25H16C16.2353 2.25 16.457 2.36047 16.5988 2.54835C16.7405 2.73624 16.7858 2.97975 16.7211 3.20604L15.1356 8.75548C14.7983 9.93606 13.7192 10.75 12.4914 10.75H5.79009C4.38883 10.75 3.21165 9.69638 3.05691 8.30369L2.32872 1.75H1C0.585786 1.75 0.25 1.41421 0.25 1ZM4.06017 3.75L4.54773 8.13804C4.61807 8.77108 5.15315 9.25 5.79009 9.25H12.4914C13.0495 9.25 13.54 8.88003 13.6933 8.3434L15.0057 3.75H4.06017Z" fill="white"/>
<path d="M5.5 14C6.05228 14 6.5 13.5523 6.5 13C6.5 12.4477 6.05228 12 5.5 12C4.94772 12 4.5 12.4477 4.5 13C4.5 13.5523 4.94772 14 5.5 14Z" fill="white"/>
<path d="M13.5 14C14.0523 14 14.5 13.5523 14.5 13C14.5 12.4477 14.0523 12 13.5 12C12.9477 12 12.5 12.4477 12.5 13C12.5 13.5523 12.9477 14 13.5 14Z" fill="white"/>
</svg>
