<svg width="14" height="14" viewBox="0 0 14 14" fill="none" xmlns="http://www.w3.org/2000/svg">
<path fill-rule="evenodd" clip-rule="evenodd" d="M2.04439 2.46783C2.01698 2.49857 1.98813 2.52662 1.97256 2.54176C1.97074 2.54353 1.9691 2.54512 1.96767 2.54652L1.96557 2.54857C1.93869 2.57483 1.91286 2.60006 1.88447 2.62995C1.82756 2.68985 1.76388 2.76504 1.70481 2.86076C1.59084 3.04543 1.47697 3.33323 1.50404 3.77642C1.56002 4.69289 2.22534 6.34123 4.94378 9.05891C7.66189 11.7763 9.30996 12.4407 10.2261 12.4961C10.669 12.523 10.9567 12.4089 11.1413 12.2949C11.237 12.2357 11.3121 12.172 11.372 12.115C11.4018 12.0867 11.427 12.0609 11.4532 12.0341L11.4555 12.0317C11.4569 12.0303 11.4585 12.0286 11.4602 12.0268C11.4754 12.0112 11.5035 11.9823 11.5343 11.9548C12.0062 11.4818 12.2694 11.1434 12.3999 10.8883C12.5205 10.6523 12.5121 10.521 12.4774 10.4159C12.4305 10.2742 12.3074 10.0986 12.0437 9.82821C11.9164 9.69765 11.7696 9.55778 11.5996 9.39604L11.5898 9.38673C11.4244 9.22941 11.2404 9.05442 11.0459 8.85997C10.7176 8.53183 10.507 8.49135 10.3565 8.49532C10.2625 8.4978 10.1572 8.51939 10.0206 8.56155C9.9525 8.58258 9.88208 8.60692 9.80245 8.63478C9.79455 8.63755 9.78654 8.64036 9.77843 8.6432C9.70746 8.66807 9.62917 8.6955 9.54913 8.72143C9.18267 8.84013 8.72012 8.94813 8.15619 8.80997C7.60302 8.67445 7.01768 8.31879 6.35076 7.65205C5.68382 6.98529 5.32797 6.40003 5.19217 5.84686C5.05375 5.28297 5.16138 4.82032 5.27978 4.45373C5.30562 4.37371 5.33297 4.29542 5.35777 4.22445C5.36061 4.2163 5.36343 4.20825 5.3662 4.2003C5.394 4.12064 5.41827 4.05018 5.43925 3.98201C5.48128 3.84538 5.50278 3.74005 5.50518 3.64597C5.50902 3.49528 5.46828 3.28455 5.13986 2.95622C4.94267 2.75908 4.7656 2.57272 4.60666 2.40544L4.6035 2.40211C4.44174 2.23186 4.30198 2.0849 4.17149 1.95731C3.90116 1.693 3.72606 1.5698 3.58468 1.52279C3.48031 1.48808 3.34949 1.47935 3.11326 1.60019C2.85786 1.73084 2.51887 1.99463 2.04439 2.46783ZM5.32857 1.71343C5.48911 1.88241 5.65879 2.06099 5.84687 2.24902C6.32052 2.72253 6.51725 3.18486 6.50485 3.67143C6.49914 3.89598 6.4491 4.10033 6.39503 4.27607C6.36796 4.36407 6.33804 4.45046 6.31037 4.52977C6.30757 4.53779 6.30479 4.54574 6.30204 4.55362C6.27672 4.62611 6.25336 4.69301 6.23138 4.76106C6.13706 5.05312 6.08917 5.30632 6.16334 5.60845C6.24014 5.92131 6.46499 6.35224 7.05776 6.94484C7.65055 7.53746 8.08144 7.76209 8.39415 7.8387C8.6961 7.91267 8.94909 7.86464 9.24096 7.7701C9.30904 7.74804 9.37597 7.7246 9.44849 7.6992C9.4563 7.69646 9.46417 7.6937 9.47211 7.69092C9.55137 7.66318 9.63772 7.63319 9.72568 7.60604C9.90132 7.55182 10.1056 7.50159 10.3301 7.49567C10.8167 7.48284 11.2791 7.67925 11.7528 8.15262L11.7529 8.15269C11.9385 8.33829 12.1148 8.50599 12.2818 8.6648L12.2888 8.67147C12.4557 8.83025 12.6168 8.98352 12.7597 9.13003C13.0363 9.41374 13.303 9.72796 13.4267 10.1018C13.5626 10.5123 13.5056 10.9223 13.2902 11.3436C13.0857 11.7435 12.7287 12.1748 12.2288 12.6746C12.2191 12.6843 12.2089 12.6937 12.1984 12.7026C12.197 12.704 12.1893 12.7116 12.171 12.7303L12.1667 12.7347C12.1413 12.7607 12.1048 12.7982 12.0611 12.8397C11.9674 12.9288 11.8377 13.04 11.667 13.1455C11.3189 13.3606 10.8282 13.5344 10.1656 13.4943C8.87061 13.4159 6.99888 12.5275 4.23677 9.76612C1.47432 7.00443 0.58501 5.1326 0.505898 3.83739C0.465423 3.17474 0.638891 2.68384 0.853816 2.33558C0.959188 2.16484 1.07034 2.03501 1.15948 1.94119C1.20104 1.89744 1.23857 1.86079 1.2646 1.83538C1.26606 1.83395 1.26749 1.83255 1.26888 1.8312C1.2877 1.81281 1.2953 1.80502 1.29672 1.80369C1.30563 1.79317 1.31498 1.78301 1.32473 1.77326C1.82576 1.2722 2.25766 0.914626 2.65784 0.709914C3.07944 0.494246 3.48965 0.437349 3.90022 0.573873C4.27378 0.698092 4.58751 0.965512 4.87059 1.24228C5.01602 1.38448 5.16826 1.54471 5.32593 1.71065L5.32846 1.71332L5.32857 1.71343Z" fill="white"/>
</svg>
