<svg width="42" height="30" viewBox="0 0 42 30" fill="none" xmlns="http://www.w3.org/2000/svg">
<path fill-rule="evenodd" clip-rule="evenodd" d="M39.9871 27.9695C39.9871 27.9674 39.9872 27.9653 39.9872 27.9631C40.0052 26.9069 40.0013 24.881 39.9931 20.8171C39.9813 16.9086 39.9751 14.8866 39.9536 13.8105C39.4582 13.8014 38.7317 13.7952 37.6464 13.7874L32.1498 13.7491L32.1163 6.31966C32.1061 4.06162 32.1001 2.76928 32.0848 2.00442C31.7688 2.00038 31.372 2 30.8589 2L29.4907 2C29.4857 2.01313 29.4807 2.02661 29.4756 2.04045C29.1874 2.81703 28.6846 4.31297 27.6605 7.36965L27.66 7.37105L25.713 13.2135L25.7288 21.0281C25.7405 24.8682 25.7467 26.8702 25.7677 27.9433C26.8525 27.9635 28.8863 27.9677 32.8075 27.9755C36.8705 27.9837 38.9111 27.9876 39.9789 27.9696C39.9817 27.9696 39.9844 27.9695 39.9871 27.9695ZM23.7288 21.0327L23.7289 21.0608C23.7534 29.1092 23.7536 29.1747 23.9257 29.3951C24.016 29.5177 24.1965 29.6976 24.3196 29.7875C24.5409 29.959 24.6066 29.9591 32.7847 29.9754L32.8035 29.9755C40.9018 29.9918 41.0741 29.9918 41.3695 29.8283C41.5582 29.7303 41.7469 29.5422 41.8454 29.3461C42.0095 29.0273 42.0095 28.9128 41.9931 20.812L41.993 20.7839C41.9684 12.662 41.9683 12.5965 41.7961 12.376C41.7059 12.2534 41.5254 12.0736 41.4023 11.9837C41.1808 11.8202 41.0659 11.812 37.6608 11.7875L34.1409 11.7629L34.1163 6.30726C34.0917 0.866482 34.0916 0.858252 33.9112 0.572207C33.5583 0.00817412 33.5255 -2.33118e-07 30.8589 0L28.4713 2.0874e-07L28.1513 0.294278C27.8313 0.580382 27.7985 0.662126 25.7636 6.7357L23.7124 12.891L23.7288 21.0327Z" fill="#E3B27D"/>
<path fill-rule="evenodd" clip-rule="evenodd" d="M18.2561 28.9948C18.1986 29.3217 17.854 29.7386 17.5176 29.8858C17.3207 29.9757 15.7125 29.992 9.12393 30.0002C1.11588 30.0002 0.976394 30.0002 0.6564 29.8367C0.443071 29.7305 0.270767 29.5588 0.164102 29.3463C1.41561e-06 29.0275 1.40567e-06 28.8803 7.08911e-07 20.9103L0 12.8013L2.01022 6.78495C3.11789 3.4825 4.09428 0.662335 4.18454 0.515196C4.49633 0.00838423 4.57837 -0.00796459 7.2614 0.0165583L9.68187 0.0410813L9.98545 0.351708L10.2972 0.65416L10.3219 6.21275L10.3383 11.7632L13.8992 11.7877C17.3535 11.8122 17.4684 11.8204 17.6899 11.9839C17.813 12.0738 17.9935 12.2536 18.0838 12.3762C18.2559 12.5967 18.2561 12.6622 18.2806 20.637L18.2807 20.6651C18.2889 25.1038 18.2807 28.8476 18.2561 28.9948ZM13.8855 13.7876C14.9973 13.7955 15.7383 13.8018 16.2417 13.811C16.2628 14.8726 16.269 16.8565 16.2807 20.6701C16.2848 22.8871 16.2848 24.929 16.2807 26.4338C16.279 27.0411 16.2767 27.5588 16.2738 27.9643C16.1065 27.9677 15.9136 27.9709 15.6915 27.9738C14.4556 27.99 12.4194 27.9961 9.12145 28.0002C5.10496 28.0002 3.09617 28.0001 2.04513 27.9801C2.03685 27.98 2.02866 27.9798 2.02054 27.9797C2.02041 27.9729 2.02028 27.9661 2.02015 27.9593C2.00011 26.9111 2 24.9095 2 20.9103L2 13.1266L3.9064 7.42095L3.90678 7.41982C4.45901 5.7734 4.97764 4.24979 5.36861 3.12183C5.52023 2.6844 5.65151 2.30977 5.75749 2.01212C6.11408 2.00727 6.58688 2.01048 7.2421 2.01647L7.24312 2.01647L8.3033 2.02722L8.34413 13.7495L13.8855 13.7876ZM16.2619 28.8496C16.2608 28.8659 16.2606 28.8764 16.2606 28.8764C16.2606 28.8764 16.2612 28.869 16.2619 28.8496Z" fill="#E3B27D"/>
</svg>
