<svg width="18" height="18" viewBox="0 0 18 18" fill="none" xmlns="http://www.w3.org/2000/svg">
<path fill-rule="evenodd" clip-rule="evenodd" d="M7.66667 1.75C4.39898 1.75 1.75 4.39898 1.75 7.66667C1.75 10.9344 4.39898 13.5833 7.66667 13.5833C10.9344 13.5833 13.5833 10.9344 13.5833 7.66667C13.5833 4.39898 10.9344 1.75 7.66667 1.75ZM0.25 7.66667C0.25 3.57055 3.57055 0.25 7.66667 0.25C11.7628 0.25 15.0833 3.57055 15.0833 7.66667C15.0833 11.7628 11.7628 15.0833 7.66667 15.0833C3.57055 15.0833 0.25 11.7628 0.25 7.66667Z" fill="white"/>
<path fill-rule="evenodd" clip-rule="evenodd" d="M11.803 11.8029C12.0959 11.51 12.5707 11.51 12.8636 11.8029L17.5303 16.4696C17.8232 16.7625 17.8232 17.2374 17.5303 17.5302C17.2374 17.8231 16.7625 17.8231 16.4697 17.5302L11.803 12.8636C11.5101 12.5707 11.5101 12.0958 11.803 11.8029Z" fill="white"/>
</svg>
