<svg width="11" height="11" viewBox="0 0 11 11" fill="none" xmlns="http://www.w3.org/2000/svg">
<path d="M1.13083 1.13082C1.28942 0.972233 1.53758 0.957817 1.71245 1.08757L1.76255 1.13082L5.61581 4.98388L9.46907 1.13082C9.62766 0.972233 9.87581 0.957817 10.0507 1.08757L10.1008 1.13082C10.2594 1.2894 10.2738 1.53756 10.144 1.71244L10.1008 1.76254L5.93167 5.93165C5.77308 6.09024 5.52492 6.10466 5.35005 5.9749L5.29995 5.93165L1.13083 1.76254C0.956389 1.58809 0.956389 1.30526 1.13083 1.13082Z" fill="white"/>
<path fill-rule="evenodd" clip-rule="evenodd" d="M1.5575 1.28407C1.48107 1.23172 1.37549 1.23971 1.30761 1.3076C1.2308 1.38441 1.2308 1.50895 1.30761 1.58576L5.47025 5.7484L5.505 5.7784C5.58143 5.83075 5.68701 5.82276 5.75489 5.75488L9.91753 1.59224L9.94754 1.55748C9.99855 1.48301 9.99226 1.38085 9.92909 1.31287L9.89573 1.28407C9.8193 1.23172 9.71373 1.23971 9.64585 1.3076L5.61581 5.33742L1.59225 1.31407L1.5575 1.28407ZM0.954056 0.954042C1.20155 0.706544 1.58849 0.684292 1.86142 0.886798L1.86883 0.892298L1.93285 0.947563L5.61581 4.63033L9.29229 0.954042C9.53979 0.706544 9.92673 0.684292 10.1997 0.886798L10.2071 0.892298L10.2711 0.947566L10.2776 0.954042C10.5251 1.20154 10.5473 1.58848 10.3448 1.8614L10.3393 1.86882L10.284 1.93284L6.10844 6.10843C5.86095 6.35593 5.47401 6.37818 5.20108 6.17567L5.19367 6.17017L5.12965 6.11491L0.954056 1.93931C0.681981 1.66724 0.681981 1.22612 0.954056 0.954042Z" fill="white"/>
<path d="M1.13083 5.06832C1.28942 4.90973 1.53758 4.89532 1.71245 5.02507L1.76255 5.06832L5.61581 8.92138L9.46907 5.06832C9.62766 4.90973 9.87581 4.89532 10.0507 5.02507L10.1008 5.06832C10.2594 5.2269 10.2738 5.47506 10.144 5.64994L10.1008 5.70004L5.93167 9.86915C5.77308 10.0277 5.52492 10.0422 5.35005 9.91241L5.29995 9.86915L1.13083 5.70004C0.956389 5.52559 0.956389 5.24276 1.13083 5.06832Z" fill="white"/>
<path fill-rule="evenodd" clip-rule="evenodd" d="M1.5575 5.22157C1.48107 5.16922 1.37549 5.17721 1.30761 5.2451C1.2308 5.32191 1.2308 5.44645 1.30761 5.52326L5.47025 9.6859L5.505 9.7159C5.58143 9.76825 5.68701 9.76026 5.75489 9.69238L9.91753 5.52974L9.94754 5.49498C9.99855 5.42051 9.99226 5.31835 9.92909 5.25037L9.89573 5.22157C9.8193 5.16922 9.71373 5.17721 9.64585 5.2451L5.61581 9.27492L1.59225 5.25157L1.5575 5.22157ZM0.954056 4.89154C1.20155 4.64404 1.58849 4.62179 1.86142 4.8243L1.86883 4.8298L1.93285 4.88506L5.61581 8.56783L9.29229 4.89154C9.53979 4.64404 9.92673 4.62179 10.1997 4.8243L10.2071 4.8298L10.2711 4.88507L10.2776 4.89154C10.5251 5.13904 10.5473 5.52598 10.3448 5.7989L10.3393 5.80632L10.284 5.87034L6.10844 10.0459C5.86095 10.2934 5.47401 10.3157 5.20108 10.1132L5.19367 10.1077L5.12965 10.0524L0.954056 5.87681C0.681981 5.60474 0.681981 5.16362 0.954056 4.89154Z" fill="white"/>
</svg>
