<svg width="37" height="31" viewBox="0 0 37 31" fill="none" xmlns="http://www.w3.org/2000/svg">
<path d="M1 15.6295C1 14.8241 1.59847 14.1585 2.37496 14.0532L2.59082 14.0386L34.4072 14.0386C35.2858 14.0386 35.9981 14.7509 35.9981 15.6295C35.9981 16.4348 35.3996 17.1004 34.6231 17.2058L34.4072 17.2203L2.59082 17.2203C1.71223 17.2203 1 16.5081 1 15.6295Z" fill="white"/>
<path d="M20.4542 3.97938C19.8316 3.35947 19.8294 2.35222 20.4493 1.72963C21.0129 1.16364 21.8966 1.11039 22.5203 1.57114L22.6991 1.72478L35.5317 14.5023C36.0994 15.0675 36.151 15.9544 35.6866 16.5781L35.5318 16.7568L22.6992 29.5364C22.0766 30.1563 21.0694 30.1542 20.4494 29.5317C19.8858 28.9658 19.8363 28.0819 20.2997 27.4601L20.4541 27.2819L32.1541 15.6289L20.4542 3.97938Z" fill="white"/>
<path fill-rule="evenodd" clip-rule="evenodd" d="M21.9034 2.35947C21.674 2.20647 21.3598 2.23245 21.158 2.43521C20.9277 2.66644 20.9285 3.04052 21.1598 3.27075L30.9699 13.0386H32.6445L22.0195 2.45927L21.9034 2.35947ZM36.4424 17.2329L36.4666 17.205L36.4887 17.1753C37.2456 16.1587 37.1625 14.7148 36.2373 13.7936L23.3787 0.990304L23.1442 0.788712L23.1145 0.766777C22.0979 0.0158598 20.6591 0.10164 19.7407 1.02405C18.7311 2.038 18.7346 3.67842 19.7486 4.68801L28.1353 13.0386L2.55722 13.0386L2.27406 13.0577L2.24053 13.0622C0.974968 13.2339 0 14.317 0 15.6295C5.96046e-08 17.0603 1.15995 18.2203 2.59082 18.2203L28.1352 18.2203L19.7225 26.5993L19.5199 26.8329L19.4978 26.8625C18.7426 27.8759 18.8223 29.315 19.7409 30.2373C20.7505 31.2512 22.391 31.2546 23.4048 30.2449L36.2635 17.4394L36.2861 17.4133C36.3409 17.3557 36.393 17.2955 36.4424 17.2329ZM34.8888 15.9718L34.8143 16.0578C34.7327 16.1355 34.6291 16.19 34.5139 16.2108L34.3736 16.2203H32.9774L33.5713 15.6288L32.9786 15.0386H34.4072C34.7335 15.0386 34.9981 15.3032 34.9981 15.6295C34.9981 15.7569 34.9576 15.8751 34.8888 15.9718ZM30.144 15.0386L2.62442 15.0386L2.48412 15.0481C2.20908 15.0978 2 15.34 2 15.6295C2 15.9558 2.26452 16.2203 2.59082 16.2203L30.1433 16.2203L30.7369 15.629L30.144 15.0386ZM30.9694 18.2203H32.6451L21.9935 28.8278C21.7623 29.058 21.3882 29.0573 21.158 28.8261C20.9561 28.6233 20.9314 28.309 21.0854 28.0803L21.1857 27.9646L30.9694 18.2203Z" fill="white"/>
</svg>
