<svg width="14" height="12" viewBox="0 0 14 12" fill="none" xmlns="http://www.w3.org/2000/svg">
<path fill-rule="evenodd" clip-rule="evenodd" d="M7.49956 1.00495C7.69609 0.640327 8.15099 0.504066 8.51561 0.700599L8.15976 1.3608C8.51561 0.700599 8.51546 0.700518 8.51561 0.700599L8.51741 0.701571L8.52097 0.703499L8.53325 0.710185L8.57768 0.734651C8.61584 0.755799 8.67071 0.786522 8.73993 0.826085C8.87828 0.905168 9.07433 1.01981 9.30895 1.16413C9.77675 1.45187 10.4046 1.86171 11.0363 2.34637C11.6635 2.82762 12.3189 3.4011 12.8243 4.01959C13.3108 4.61505 13.7422 5.35341 13.7497 6.15793C13.7499 6.16548 13.75 6.17307 13.75 6.18068C13.75 6.18879 13.7499 6.19687 13.7496 6.20491C13.7406 7.00795 13.3101 7.74498 12.8244 8.33971C12.319 8.95852 11.6637 9.53228 11.0364 10.0137C10.4048 10.4986 9.77686 10.9086 9.30905 11.1965C9.07443 11.3408 8.87837 11.4555 8.74002 11.5346C8.67081 11.5742 8.61593 11.6049 8.57777 11.6261L8.53333 11.6506L8.52106 11.6573L8.5175 11.6592L8.51638 11.6598C8.51623 11.6599 8.5157 11.6602 8.15976 11L8.51638 11.6598C8.15178 11.8564 7.69618 11.7205 7.4996 11.3559C7.30305 10.9914 7.43918 10.5366 7.80365 10.3399L7.80548 10.3389L7.81395 10.3343L7.85046 10.3142C7.8832 10.2961 7.93231 10.2686 7.99544 10.2325C8.12177 10.1602 8.30384 10.0538 8.52297 9.91894C8.96266 9.64839 9.54475 9.2678 10.1231 8.82387C10.7059 8.37653 11.2605 7.88328 11.6626 7.39089C11.7966 7.22686 11.9051 7.07329 11.9907 6.93068H1C0.585786 6.93068 0.25 6.59489 0.25 6.18068C0.25 5.76647 0.585786 5.43068 1 5.43068H11.992C11.9063 5.28761 11.7974 5.13345 11.6627 4.96871C11.2606 4.4766 10.706 3.98359 10.1232 3.53643C9.54487 3.09269 8.96277 2.71223 8.52307 2.44178C8.30394 2.30699 8.12187 2.20056 7.99553 2.12834C7.9324 2.09226 7.88329 2.06477 7.85055 2.04663L7.81404 2.02652L7.80556 2.0219L7.80391 2.021C7.43942 1.82442 7.30306 1.36951 7.49956 1.00495Z" fill="white"/>
</svg>
